<svg xmlns="http://www.w3.org/2000/svg" viewBox="0 0 446 446"><defs><style>.cls-1,.cls-10,.cls-2,.cls-3,.cls-5,.cls-6,.cls-7,.cls-8,.cls-9{fill:#ff0;}.cls-2{font-size:6.2px;}.cls-10,.cls-2,.cls-3,.cls-5,.cls-6,.cls-7,.cls-8,.cls-9{font-family:ArialMT, Arial;}.cls-3{font-size:6.2px;}.cls-4{letter-spacing:-0.07em;}.cls-5{font-size:6.2px;}.cls-6{font-size:6.2px;}.cls-7{font-size:6.2px;}.cls-8{font-size:6.2px;}.cls-9{font-size:6.2px;}.cls-10{font-size:6.2px;}.cls-11{fill:red;}</style></defs><g id="Layer_2" data-name="Layer 2"><g id="Layer_1-2" data-name="Layer 1"><path id="selection_to_path" data-name="selection to path" class="cls-1" d="M189.22,256.31c-3.65-6.19-14.29-12.43-19.51-18-2.94-3.55-4.38-8.82-6.32-13.52-2.44-4.13-5.52-9.82-3.18-14.82,2.43,4.13,1.94,4.7,3.8,8.33l4.8,7.18c1.87,3.63,1.52,6.34,3.88,9.4,3,4.62,13.23,12.5,17.8,16.48,1.15,1,2.86,2.48,3,4.62.8,3.71-5.39,7.36.82,11.76.57.5,1.72,1.49,2.79,1.42,7.13,2.18,16.8-5.47,23.07-8.06,6.83-2.09,8.7,1.54,15.53-.55C243.12,259,253.56,247,258,240.76c.92-2.21,3.4-5.07,3.75-7.78,2.26-6.06-1.81-10.61-.7-17.67,1.27-4.93,6.59-13.35,4.43-21.26a5.8,5.8,0,0,0-1.3-3.13c-4.8-7.19-9,2.24-14.47.47-3.85-1.34-11.51-11-13.87-14.07l3.21-.22,5.14,4.47,6.22,4.4c4.32-7.28-3.61-13.17-8.26-18.22-12.73-13.07-21.31-20.53-40.62-20.25-10.69.75-21.73,4.2-29.83,11.21l-4.48,5.15-4.05,3.51-3.4,5.07c-5.89,7.93-10.37,13.08-12.4,22.35-1.69,6.56-1.32,11.91-.3,18.82,1.69,16.53,11.64,28.19,25.14,36.91C177.24,253.93,183.38,257.26,189.22,256.31Zm-.75-33.78c6.39-8.51,17.08-9.25,22.6.56a24.7,24.7,0,0,1-1.14,22.11c-3.9,5.64-9.32,4.94-13.9,1C188.6,239.7,183.3,233.09,188.47,222.53Zm27.84-32c6-6.86,14.67-5.32,21.46-.42,1.71,1.49,3.92,2.41,5.07,3.4,3.5,4.05,2.88,10.54,0,15-5.47,6.29-21.66,5.28-26.88-.27C211.79,202.64,213.48,196.07,216.31,190.5Zm25.94,40.62-6.61,5.3-2.76,6.63c-4.5-2.9-8.73-9.59-11.24-14.79-.65-1.56-1.94-4.69-1.52-6.33,1.42-2.79,4.77-.88,5.92.12C231.61,224.88,237.67,227.14,242.25,231.12Z"/><path id="selection_to_path_1" data-name="selection_to_path#1" class="cls-1" d="M270.78,216.77c-.92,2.21-2.9,4.5-3.25,7.21-1,9.2,11.24,14.79,13.05,25.41.87,4.77-2.46,10.91-5.94,14.91-6.46,7.44-15,16.09-25.4,13.06-7.63-1.62-9.3-10.09-21.06-9.27-1.56.65-4.77.87-5.77,2-1.49,1.72,1.3,3.14,2.44,4.13l11.94,9.37c8.57,7.46,10.56,5.17,19.19,5.64,5.42.7,10.34,2,15.54-.55,6.19-3.65,11.16-9.37,15.06-15,3.48-4,6-5.79,7.23-11.78s-2-20.81-5.57-25.93l-7.51-7.53C276,222.31,277.65,222.74,270.78,216.77Z"/><path id="selection_to_path_8" data-name="selection_to_path#8" class="cls-1" d="M253.22,272.78c1.43,1.25,3.29,2.61,4.64,2.79s3.3-1.91,3.41-2.81c-.07-.87-3.09-1.94-4.17-2S255,271.32,253.22,272.78Z"/><path id="selection_to_path_7" data-name="selection_to_path#7" class="cls-1" d="M257.77,268.71l3.35,1.91a5.67,5.67,0,0,0,3.28.84c3.14-1.29-1.59-7.4-3.65-6.19C259.18,265.92,258.76,267.56,257.77,268.71Z"/><path id="selection_to_path_6" data-name="selection_to_path#6" class="cls-1" d="M264.3,262.34a4.45,4.45,0,0,0,3.37,4.9,3.16,3.16,0,0,0,3.27-2.14,5.65,5.65,0,0,0-1.7-4.11C268,259.8,266.25,259.52,264.3,262.34Z"/><path id="path784" class="cls-1" d="M251.4,262.17c2.14-.85,3.52-4.15,3.52-4.15l-3.47-2.84c-2.79-1.41-4.85-.2-4.7,1.94C247.4,258.69,250.26,261.17,251.4,262.17Z"/><path id="path785" class="cls-1" d="M253.14,248.62c-.5.57-2.36,2.1-2.28,3.17.15,2.09,3.45,5.88,6.08,5.16,1.21-.84,3-2.41,1.22-5l-1.67-1.45A10.25,10.25,0,0,0,253.14,248.62Z"/><path id="path786" class="cls-1" d="M276.41,258.81c.68-.33.42-1.64.35-2.71-.53-7.48-11-1.94-3.63,1.86C273.13,258,275.79,259.32,276.41,258.81Z"/><path id="path787" class="cls-1" d="M243.49,258.57c-.7.39-1.36,1.56-1.86,2.13-1.85,6.2,10.72,7.31,7.06,1.12L247,260.33S244,258.34,243.49,258.57Z"/><path id="path788" class="cls-1" d="M255.13,246.33s4.94,6,5.79,6a7,7,0,0,0,3.09-4.16c-1.71-1.49-3.62-3.34-5-3.9S257.15,244.58,255.13,246.33Z"/><path id="path789" class="cls-1" d="M259.21,240.28l2.68,2.89c1.71,1.5,5.37,4,5.64.24a16,16,0,0,0-4.59-5.3C261.59,238,260.57,239,259.21,240.28Z"/><path class="cls-1" d="M265.17,322.41l.07,0c.5.11,1.75-.28,3.76-1.17l4.53-3.19,1.67-.92a6.77,6.77,0,0,1,5.2-.64,8.46,8.46,0,0,1,2,1.08c.47,0,.73,0,.77.06l0,1.27a4.7,4.7,0,0,1-.13,4.35,8.5,8.5,0,0,1-2.56,2.58L280,326l-1.84.87.88,1.73,0,.06,0,.29.32.32c-.21.16-.29.28-.25.35l.2.22.05,0,.14-.27.1-.06c.86,1.28,1.58,1.76,2.18,1.44l.24-.2.34-.19.42.52-.52.34-2,1.1a15.63,15.63,0,0,0-2.76,2.22,1.62,1.62,0,0,1-.66-.41l.07,0c.86-1,1.15-1.69.87-2.21l-.33-.72L273,323.18a3.7,3.7,0,0,0-1.65-.13l-.15-.26a.41.41,0,0,1,.22-.4l1.45-.65.33-.18,2.93-1.75.27.32q-.94.53-.69,2a1.77,1.77,0,0,0,.24.84l.7,1.28a.72.72,0,0,0,0,.47c.17,0,.31.05.42.25l0,.05a.74.74,0,0,0,0,.54q.21-.12.48.36l.08,0,.07,0,1.73-.89a3.25,3.25,0,0,0,1.55-3.13,10.12,10.12,0,0,0-.75-1.86c-.76-1-1.35-1.44-1.78-1.41l-.11-.06.38-.24.14-.33,0,.07-.33-.27-.4,0,0,.3-.3.13,0,.17-.06,0a4.32,4.32,0,0,0-3.33.38c0-.05-.32.07-.89.35a26.15,26.15,0,0,0-4.88,4l-.34.19c-.93.38-1.46.46-1.58.24Z"/><path class="cls-1" d="M282.09,313.19l2.74-1.8h.87l.17-.52,1.22-.94.25.62a1.46,1.46,0,0,0-.5,1.08,6.37,6.37,0,0,0,.82,1.81l1.31,1.88.11.52-.25.17,0,1,.49.19.23.32.55-.07.2-.14.3.43,3,4a1.87,1.87,0,0,0,1.46.82l.75-.34.39.57A48.52,48.52,0,0,0,291.4,326l-.54-.65a1.38,1.38,0,0,0,.55-.86,2.73,2.73,0,0,0-.5-1.25l-6.17-8.73a6.69,6.69,0,0,0-1.15-.74c-.26-.11-.6,0-1,.29Z"/><path class="cls-1" d="M296.24,301.6a7,7,0,0,1,3.09-1.29,1.28,1.28,0,0,1,.9.26l.25-.31,4,.53,0,0a6.63,6.63,0,0,0,1.11,1.87,5,5,0,0,1,.34,3.23l0,.28c.09-.08.5,0,1.24.13l.08.09.24.35.82-.09-.05-.29,0,0a10.68,10.68,0,0,1,3.6.66,12.76,12.76,0,0,0,4.39,1,3.55,3.55,0,0,0,1.54-.51l1.31-1.75.08-.07.25-.15.15.17a3.16,3.16,0,0,1-1.12,2.77,5.08,5.08,0,0,1-4.16,1.41,19.62,19.62,0,0,1-4.84-.71l-4.31-1-.87.87-1,.93-.28.18-.08.15,1.51,1.65c0,.05,0,.19-.15.39l.16.19c.08.08.2.05.36-.1a1.84,1.84,0,0,0,1.8.74l.56-.44.41.45-1.78,1.4A11.38,11.38,0,0,0,304,317.5l0-.06-.55-.45c.6-.55.54-1.35-.18-2.38l-4-4.39-1.76-2a1,1,0,0,0-1.52-.1l-.07.07a.67.67,0,0,1-.43-.35c-.12-.21-.15-.35-.07-.43a30.75,30.75,0,0,0,3.66-3.26l.53.58-.41.37a2.72,2.72,0,0,0,.94,2.17l.5.54,1.41,1.6.15-.06c1.56-1.43,2.2-2.45,1.93-3.05.19-.71-.15-1.53-1-2.48-1.23-1.34-2.44-1.92-3.62-1.74a5.82,5.82,0,0,0-2.94,1.46,35.38,35.38,0,0,0-4.19,5l-.28.34c-.73.46-1.14.64-1.25.52l-1.89-.93.08-.07a6.63,6.63,0,0,0,2.92-1.7,16.48,16.48,0,0,0,2.05-2.51A13.55,13.55,0,0,1,296.24,301.6Z"/><path class="cls-1" d="M322.71,294.45a2,2,0,0,0,.34-.86.57.57,0,0,0-.27-.5,1.82,1.82,0,0,0-.26-.15c-.12-.06-.29-.13-.53-.22l-.95-.34-1.84-.64c-.13.19-.79,1.22-2,3.1l-.35-.12a2.2,2.2,0,0,1-.15.86l1,1.33.58.8.34.42a1.62,1.62,0,0,0,.22.19c.41.32.87.15,1.37-.48l.52-.2.16.12a1.26,1.26,0,0,1,.28.25s0,.11-.07.2l-.14.19a2.59,2.59,0,0,1-.18.21l-1.28,1.66a1.75,1.75,0,0,1-.26.51l-.5.64-.22.1-.07.35-.06.28-.1,0-.14.26-.07.4c-.16.49-.32.71-.45.68s-.19-.1-.16-.21l-.17-.21a.19.19,0,0,1-.25-.27,12.18,12.18,0,0,0,.69-2.08,2.27,2.27,0,0,0-.44-.92,6.18,6.18,0,0,1-.65-1.28,15.93,15.93,0,0,0-1-2,26.94,26.94,0,0,1-2-2.9c-.56-.95-1.05-1.72-1.5-2.33a6.56,6.56,0,0,1-.91-1.58c-.17-.46-.7-.64-1.59-.55l-.49-1.25a14.58,14.58,0,0,0,.94-1.49.57.57,0,0,1,.12-.21c.05-.07.1-.1.15-.08l.4.12a23.82,23.82,0,0,1,3,.46c.58.14,1.06.28,1.43.4l.62.26-.34.25.16.33.6.1.58-.43,1.07.35,1.08.36.92-.81,1.11,1.41-.23.37q1.26.45,1.92.63a1.84,1.84,0,0,1,1.05.74l1.41-.2a1.31,1.31,0,0,0,.67-.29c.18-.16.3-.24.34-.23a2.5,2.5,0,0,1,.32.21.51.51,0,0,1,.23.45l-2.7,3.59-.2.29c-.31.41-.49.62-.55.62a.76.76,0,0,1-.33-.18,1.12,1.12,0,0,1-.27-.25C322.62,294.64,322.64,294.57,322.71,294.45Zm-5.34-3.17-1.65-.53c-.36-.36-.65-.52-.86-.5a1.82,1.82,0,0,1-.74-.08l-.64-.19-.39-.13c.89,1.31,1.79,2.67,2.69,4.06Z"/><path class="cls-1" d="M314.76,280.18a.8.8,0,0,1,.45-.79l.22-.37.68-1.18c.43-.12,1.26-1.7,2.52-4.76l.62-1.17.32-.59.32-.6a21.29,21.29,0,0,0,4.54,1.57l.13,1a7.45,7.45,0,0,0-2.5,0,4,4,0,0,0-1.57.57,2.61,2.61,0,0,0-.8,1.09l4.51,2.52,1.35.77.95.71.23.62,1,.4,1,0a3.71,3.71,0,0,0,2.68.33l.62-.56.74.41a22.14,22.14,0,0,1-1.58,2.53,3.74,3.74,0,0,0-.82,1.5,7.28,7.28,0,0,1-.84,1.95l-.61-.46a11.59,11.59,0,0,0-.2-2.06l-9.2-5.05-.37-.5-1.06-.36c-.61,1-.84,1.72-.68,2.18s.32.91.49,1.35l0,.5c.4.24.83.49,1.27.73l-.49.69Z"/><path class="cls-1" d="M324.06,260.67l.1-.26.45-.34.05-.34,0-.13a24.44,24.44,0,0,1,.91-3.17,8.75,8.75,0,0,0,2.28.84l1.9.25.39,1a9.85,9.85,0,0,0-2.67.7c-.52.26-1,.54-1.49.81a4.88,4.88,0,0,0-1.49,1.9l-.14.92-.13.34.21.46.34.13.56.52,1.45.25,2.69,1,1.13-2.78.32-.84a2.61,2.61,0,0,0-.37-.83,6.39,6.39,0,0,0-.6-.64l.32-.82,4.55,1.67-.41.86a3.31,3.31,0,0,0-1.59-.07,1.73,1.73,0,0,0-1.17,1.21l-.56,1.51-.42,1.2,4.22,1.62c.82.17,1.29.18,1.43,0a2.88,2.88,0,0,0,.42-.79c.14-.38.32-1,.54-1.87l.28.11.13.29.34-.47-.37-.28a24.2,24.2,0,0,1,1.37-2.94c.54-1,.87-1.64,1-2a3.26,3.26,0,0,0,.19-1.33c0-.57.22-.75.71-.54s.69.43.61.64-.22.7-.42,1.45a6.4,6.4,0,0,1-.67,1.75,12.92,12.92,0,0,0-.89,2c-.35.9-.85,2.14-1.52,3.72S337,270,336.88,270.5l-.43,1.35c-.14.44-.34,1-.58,1.62l-.64-.32a2.9,2.9,0,0,0,.08-1.33,2.11,2.11,0,0,0-.49-.74,7.73,7.73,0,0,0-2-1l-4.63-1.72,0-.3-.21-.08-.06-.23,0-.22.11-.11.05-.13.07-.19L328,267l-.28-.11-.1.25a3,3,0,0,1-.22.8l-1.73-.53a10.75,10.75,0,0,0-1.92-.39,1.51,1.51,0,0,0-.92.27,2.93,2.93,0,0,0-.83,1.14l-.73-.72Z"/><text class="cls-2" transform="translate(91.37 66.02) rotate(-39)">10</text><text class="cls-3" transform="matrix(0.87, -0.48, 0.48, 0.87, 120.57, 45.54)">20</text><text class="cls-2" transform="translate(378.53 90.08) rotate(51)">100</text><text class="cls-3" transform="matrix(0.48, 0.87, -0.87, 0.48, 399.31, 119.29)"><tspan class="cls-4">1</tspan><tspan x="2.99" y="0">10</tspan></text><text class="cls-5" transform="translate(414.55 151.32) rotate(71)">120</text><text class="cls-6" transform="matrix(0.16, 0.99, -0.99, 0.16, 424.02, 185.71)">130</text><text class="cls-7" transform="translate(427.44 221.22) rotate(91)">140</text><text class="cls-8" transform="translate(424.61 256.8) rotate(101)">150</text><text class="cls-9" transform="matrix(-0.36, 0.93, -0.93, -0.36, 415.61, 291.29)">160</text><text class="cls-10" transform="matrix(-0.52, 0.86, -0.86, -0.52, 400.84, 323.78)">170</text><text class="cls-2" transform="translate(355.57 378.58) rotate(141)">190</text><text class="cls-3" transform="matrix(-0.87, 0.48, -0.48, -0.87, 326.48, 399.23)">200</text><text class="cls-5" transform="translate(294.29 414.57) rotate(161)">210</text><text class="cls-6" transform="matrix(-0.99, 0.16, -0.16, -0.99, 259.87, 424.08)">220</text><text class="cls-7" transform="translate(224.4 427.46) rotate(-179)">230</text><text class="cls-8" transform="translate(188.84 424.65) rotate(-169)">240</text><text class="cls-9" transform="matrix(-0.93, -0.36, 0.36, -0.93, 154.27, 415.65)">250</text><text class="cls-10" transform="matrix(-0.86, -0.52, 0.52, -0.86, 121.87, 400.87)">260</text><text class="cls-2" transform="translate(67.06 355.61) rotate(-129)">280</text><text class="cls-3" transform="matrix(-0.48, -0.87, 0.87, -0.48, 46.35, 326.51)">290</text><text class="cls-5" transform="translate(31.04 294.32) rotate(-109)">300</text><text class="cls-6" transform="matrix(-0.16, -0.99, 0.99, -0.16, 21.51, 259.93)">310</text><text class="cls-7" transform="translate(18.16 224.42) rotate(-89)">320</text><text class="cls-8" transform="translate(20.99 188.88) rotate(-79)">330</text><text class="cls-9" transform="matrix(0.36, -0.93, 0.93, 0.36, 29.91, 154.31)">340</text><text class="cls-10" transform="matrix(0.52, -0.86, 0.86, 0.52, 44.17, 122.61)">350</text><text class="cls-5" transform="translate(152.93 30.5) rotate(-19)">30</text><text class="cls-6" transform="matrix(0.99, -0.16, 0.16, 0.99, 187.35, 21.29)">40</text><text class="cls-7" transform="translate(222.92 18.2) rotate(1)">50</text><text class="cls-8" transform="translate(258.46 21.35) rotate(11)">60</text><text class="cls-9" transform="matrix(0.93, 0.36, -0.36, 0.93, 292.86, 30.57)">70</text><text class="cls-10" transform="matrix(0.86, 0.52, -0.52, 0.86, 325.22, 45.7)">80</text><path class="cls-1" d="M436,208.11a212.87,212.87,0,0,0-72.2-145.63l2.46-4.27-3.89,3A213.35,213.35,0,0,0,62.12,82.62L60,81.32c.55.64,1.07,1.28,1.59,1.9a213.35,213.35,0,0,0,20.61,300.3l-2.46,4.27,3.89-3a213.35,213.35,0,0,0,299.88-21l4.27,2.46-3-3.89A212.81,212.81,0,0,0,436,208.11ZM75.91,71.39l3.75,3.88.71-.68-3.75-3.88a209.14,209.14,0,0,1,27.85-22.57l3,4.49.81-.55-3-4.49a209.1,209.1,0,0,1,31.36-17.34l2.19,4.91.9-.4-2.19-4.91a210.63,210.63,0,0,1,33.9-11.61l1.29,5.16,1-.24L172.39,18a213.48,213.48,0,0,1,35.39-5.58l.37,5.28,1-.07-.37-5.28a214.29,214.29,0,0,1,35.82.6L244,18.24l1,.1.56-5.29a211.64,211.64,0,0,1,35.19,6.79L279.26,25l.95.27,1.48-5.17a210.17,210.17,0,0,1,33.48,12.82l-2.38,4.86.88.43L316,33.35a209,209,0,0,1,30.72,18.47l-3.17,4.37.79.57,3.17-4.36q6.63,4.85,13,10.28l-6.7,5.23A202.69,202.69,0,0,0,71.53,88c-2.31-1.22-4.79-2.61-7.42-4.18Q69.81,77.32,75.91,71.39Zm295.74,76.23c-.4-.8-.82-1.59-1.23-2.39l14.26-4.1Zm14-4.47-11.87,8.92c-.37-.8-.75-1.6-1.14-2.39l0,0Zm-15.08,7.51v0c.46.93.9,1.86,1.33,2.8.33.7.65,1.4,1,2.1a163.65,163.65,0,0,1,13.94,55l-2.06-.3a163.12,163.12,0,0,0-13.53-53.46c-.31-.71-.63-1.41-.95-2.11q-.74-1.59-1.5-3.15c-.33-.68-.67-1.35-1-2-.53-1-1.06-2.07-1.61-3.1-.36-.68-.73-1.35-1.1-2a161.36,161.36,0,0,0-27.53-36.48l1-1.76a162.86,162.86,0,0,1,28.47,37.67c.37.68.74,1.36,1.1,2q.74,1.38,1.44,2.76C370,149.31,370.28,150,370.61,150.66Zm10.8,124.15,0,0c.27-.84.54-1.69.8-2.53l13,7.18Zm13.09,6.76-14.7-2.08c.31-.84.61-1.69.9-2.53ZM380.84,268.9q-.31,1.11-.66,2.22c-.3,1-.61,2-.93,2.95v0c-.23.71-.47,1.43-.71,2.14-.34,1-.68,2-1,2.94-.26.72-.53,1.44-.8,2.16a162.69,162.69,0,0,1-23,41.27l-1.25-1.6a161.1,161.1,0,0,0,22.18-39.95c.28-.72.55-1.45.81-2.17.4-1.09.79-2.19,1.16-3.29.24-.71.48-1.42.71-2.14q.54-1.65,1.05-3.33c.22-.73.44-1.47.65-2.21A163.06,163.06,0,0,0,385,213.08l2-.58A163.72,163.72,0,0,1,380.84,268.9ZM298.38,371.65c.8-.4,1.59-.82,2.39-1.23l4.1,14.26Zm4.47,14-8.92-11.87c.8-.37,1.6-.75,2.39-1.14l0,0Zm-2.73-17.52-2.76,1.44-2,1h0c-.93.46-1.86.9-2.8,1.33-.69.33-1.4.65-2.1,1a163.65,163.65,0,0,1-55,13.94l.3-2.06a163.12,163.12,0,0,0,53.46-13.53l2.11-.95q1.59-.74,3.15-1.5l2-1c1-.53,2.07-1.06,3.1-1.61l2-1.1a161.36,161.36,0,0,0,36.48-27.53l1.76,1a162.86,162.86,0,0,1-37.67,28.47ZM171.19,381.41l0,0,2.53.8-7.18,13Zm-6.76,13.09,2.08-14.7c.84.31,1.69.61,2.53.9Zm7.5-15.25h0l-2.14-.71c-1-.34-2-.68-2.94-1l-2.16-.8a162.69,162.69,0,0,1-41.27-23l1.6-1.25A161.1,161.1,0,0,0,165,374.66c.72.28,1.45.55,2.17.81,1.09.4,2.19.79,3.29,1.16l2.14.71q1.65.54,3.33,1.05l2.21.65A163.06,163.06,0,0,0,232.92,385l.58,2a163.72,163.72,0,0,1-56.4-6.16q-1.11-.31-2.22-.66C173.9,379.88,172.91,379.57,171.93,379.25ZM74.35,298.38c.4.8.82,1.59,1.23,2.39l-14.26,4.1Zm-14,4.47,11.87-8.92c.37.8.75,1.6,1.14,2.39l0,0Zm15.08-7.51v0c-.46-.93-.9-1.86-1.33-2.8-.33-.69-.65-1.4-1-2.1a163.65,163.65,0,0,1-13.94-55l2.06.3a163.12,163.12,0,0,0,13.53,53.46c.31.71.63,1.41,1,2.11q.73,1.59,1.5,3.15c.33.68.66,1.35,1,2,.53,1,1.06,2.07,1.61,3.1.36.68.73,1.35,1.1,2a161.36,161.36,0,0,0,27.53,36.48l-1,1.76a162.86,162.86,0,0,1-28.47-37.67c-.37-.68-.74-1.36-1.1-2q-.73-1.38-1.44-2.76C76.05,296.69,75.72,296,75.39,295.34ZM64.59,171.19l0,0c-.27.84-.54,1.69-.8,2.53l-13-7.18ZM51.5,164.43l14.7,2.08c-.31.84-.61,1.69-.9,2.53ZM65.16,177.1q.32-1.11.66-2.22c.3-1,.61-2,.93-2.95v0c.23-.71.47-1.43.71-2.14.34-1,.68-2,1-2.94.26-.72.53-1.44.8-2.16a162.93,162.93,0,0,1,13.27-27.12,8.3,8.3,0,0,0,.76,2.58,160.49,160.49,0,0,0-12,24.82c-.28.72-.55,1.45-.81,2.17-.4,1.09-.79,2.19-1.16,3.29-.24.71-.48,1.42-.71,2.14q-.54,1.65-1,3.33c-.22.73-.44,1.47-.65,2.21A163.06,163.06,0,0,0,61,232.92l-2,.58A163.72,163.72,0,0,1,65.16,177.1Zm27.2-32.63a3.28,3.28,0,0,0,1,4.64c3.11,2.29,5.67-1,5.67-1,3.34-4.48-2.3-5.93-2.3-5.93,3.49-2.8,1-3.1,1-3.1-8-1.13-3-7.18-3-7.18,4-5,11.54-1.08,11.54-1.08-4.13,4-2.16,5.43-2.16,5.43,2.21,2.07,5.48-2.82,5.48-2.82,5,8.7.79,13.69.79,13.69-1.69-6.74-6.45-1.68-6.45-1.68-3.43,3.94.09,7,.09,7,3.57,3,7.08.15,8.57-1.41a130.37,130.37,0,0,0-14.29,29.24l0,.05h0c-.2.58-.39,1.16-.58,1.75-.08.23-.15.47-.23.7-.14.46-.29.92-.43,1.38s-.25.84-.38,1.26c-.17.58-.35,1.17-.51,1.75l-.09.32a130.5,130.5,0,0,0-4.84,36.76l-27.92,8.06a160.77,160.77,0,0,1,5.76-53c.21-.74.42-1.48.64-2.22.37-1.25.76-2.5,1.16-3.74l.72-2.14c.42-1.23.85-2.46,1.31-3.68.26-.73.54-1.45.81-2.17A158.83,158.83,0,0,1,84.8,142.16C89.19,145.82,92.36,144.47,92.36,144.47Zm-.44-20.61q2-2.61,4.07-5.15c.64.24,1.27.5,1.89.79-1,1.19-1.95,2.39-2.9,3.6A12.46,12.46,0,0,0,91.92,123.86Zm55.7-49.51c-.8.4-1.59.82-2.39,1.23l-4.1-14.26Zm-4.47-14,8.92,11.87c-.8.37-1.6.75-2.39,1.14l0,0Zm2.73,17.52,2.76-1.44,2-1h0c.93-.46,1.86-.9,2.8-1.33.69-.33,1.4-.65,2.1-1a163.65,163.65,0,0,1,55-13.94l-.3,2.06a163.12,163.12,0,0,0-53.46,13.53l-2.11,1q-1.59.73-3.15,1.5l-2,1c-1,.53-2.07,1.06-3.1,1.61l-2,1.1A160.62,160.62,0,0,0,121.5,96.23a8.21,8.21,0,0,0-2.66-.39,162.29,162.29,0,0,1,25-16.91ZM274.81,64.59l0,0-2.53-.8,7.18-13Zm6.76-13.09-2.08,14.7c-.84-.31-1.69-.61-2.53-.9Zm-7.5,15.25h0l2.14.71c1,.34,2,.68,2.94,1l2.16.8a162.69,162.69,0,0,1,41.27,23L321,93.52a161.1,161.1,0,0,0-39.95-22.18c-.72-.28-1.45-.55-2.17-.81-1.09-.4-2.19-.79-3.29-1.16l-2.14-.71q-1.65-.54-3.33-1L267.91,67A163.06,163.06,0,0,0,213.08,61l-.58-2a163.72,163.72,0,0,1,56.4,6.16l2.22.66C272.1,66.12,273.09,66.43,274.07,66.75Zm80.75,155a131.46,131.46,0,0,1-17.27,66.53q-1.65,2.9-3.45,5.7,1.8-2.81,3.45-5.7a131.18,131.18,0,0,0,17.27-66.53l27.92-8.06h0A160.37,160.37,0,0,1,379.42,257q-1.07,4.94-2.44,9.81c-.21.74-.42,1.48-.64,2.22-.37,1.25-.76,2.5-1.16,3.74l-.72,2.14c-.42,1.23-.85,2.46-1.31,3.68-.26.73-.54,1.45-.81,2.17q-1.47,3.78-3.12,7.52,1.65-3.74,3.12-7.52c.27-.72.55-1.44.81-2.17.46-1.22.89-2.45,1.31-3.68l.72-2.14c.4-1.24.79-2.49,1.16-3.74.22-.74.43-1.48.64-2.22q1.38-4.87,2.44-9.81a160.37,160.37,0,0,0,3.32-43.23Zm-.4-9.13s0-.07,0-.1c-.11-1.37-.24-2.73-.39-4.09,0-.09,0-.18,0-.27l21.14,3Zm20.88.84-20.52,5.93c0-1.5-.11-3-.2-4.48Zm-21.59-7.65a130.52,130.52,0,0,0-9.92-35.73l-.12-.3c-.25-.55-.5-1.11-.76-1.66-.18-.4-.36-.8-.55-1.2s-.41-.87-.62-1.3c-.11-.22-.21-.45-.32-.67l-.7-1.4-.12-.25c0-.05-.05-.09-.07-.13-.14-.28-.28-.56-.43-.84l-.38-.72a130,130,0,0,0-15.65-23.33l-.21-.24q-.83-1-1.68-2l-.27-.32-.24-.27L336.4,110a159,159,0,0,1,26.45,35.07c.38.68.75,1.35,1.11,2,.62,1.15,1.22,2.31,1.81,3.47.34.67.67,1.34,1,2,.58,1.17,1.13,2.35,1.68,3.53.32.71.63,1.41.94,2.12A160.73,160.73,0,0,1,382.48,210Zm-14.07-39.21a130,130,0,0,1,12.62,48.75h0a15.19,15.19,0,0,1-25.15,11.1,15,15,0,0,1-4.48-6.74,15.22,15.22,0,0,0,15.5,10.43,15.21,15.21,0,0,0,14.13-14.79A129.38,129.38,0,0,0,146.9,118.21q-2.07,1.52-4.06,3.1c-1.09.86-2.17,1.73-3.22,2.62q-2.76,2.32-5.38,4.8c-1.56,1.46-3.08,3-4.56,4.51,1.48-1.54,3-3.05,4.56-4.51q2.63-2.47,5.38-4.8c1-.89,2.13-1.76,3.22-2.62q2-1.59,4.06-3.1a129.49,129.49,0,0,1,192.74,48.43ZM245.23,342.33a15.12,15.12,0,0,1-3.75,5.71,15.12,15.12,0,0,0,3.75-5.71,15.05,15.05,0,0,0,.94-5.58c0-.24,0-.49,0-.73a15.2,15.2,0,0,0-16.21-14.1,98.54,98.54,0,0,1-58.11-14c-2.77-1.68-5.48-3.51-8.1-5.47q-3-2.21-5.77-4.65,2.82,2.45,5.77,4.65c2.62,2,5.33,3.79,8.1,5.47a98.54,98.54,0,0,0,58.11,14A15.2,15.2,0,0,1,246.13,336c0,.24,0,.49,0,.73A15.05,15.05,0,0,1,245.23,342.33Zm-12.73,33-5.93-20.52h.28c1.36,0,2.73-.1,4.1-.19h.1ZM241,348.51c-.35.3-.71.59-1.08.86C240.26,349.1,240.62,348.81,241,348.51Zm-1.65,1.25a12.88,12.88,0,0,1-1.19.71A12.88,12.88,0,0,0,239.32,349.76Zm-110.49-219-1,1-.24.25-.35.37a63,63,0,0,1-11.39-6.77s8.77,6.62,17.06,1.12q-2,1.91-4,3.9Zm-5,91.78c0-1.64.06-3.27.14-4.9C123.89,219.24,123.84,220.87,123.83,222.51Zm-4.69-76.84q-1.36,1.85-2.67,3.74c-1.61,2.32-3.15,4.69-4.6,7.11a127.09,127.09,0,0,0-16,41.88q-.59,3-1,6.08c-.16,1.11-.3,2.23-.43,3.34-.22,1.94-.41,3.88-.55,5.82.14-1.94.33-3.88.55-5.82.13-1.11.27-2.23.43-3.34q.44-3,1-6.08a127.09,127.09,0,0,1,16-41.88c1.45-2.42,3-4.79,4.6-7.11q1.31-1.89,2.67-3.74,2.92-3.91,6.14-7.62Q122.07,141.76,119.14,145.67ZM97.08,253.23c.71,3,1.53,6,2.46,8.89a126.5,126.5,0,0,0,14.94,31.58q1.8,2.74,3.73,5.4t4,5.19q-2.06-2.54-4-5.19t-3.73-5.4a126.5,126.5,0,0,1-14.94-31.58c-.93-2.94-1.75-5.91-2.46-8.89a130.87,130.87,0,0,1-3.57-30.39A130.87,130.87,0,0,0,97.08,253.23Zm27.79-15.95c-.24-1.62-.43-3.25-.59-4.89C124.44,234,124.63,235.66,124.87,237.28Zm.48-31.74q.42-2.39,1-4.74Q125.77,203.16,125.35,205.54ZM322.42,219a14.75,14.75,0,0,1-.43-2.2A14.75,14.75,0,0,0,322.42,219Zm-1.67-12.75q-.62-3.63-1.48-7.17Q320.14,202.66,320.75,206.29Zm-2.09-9.52q-1-3.53-2.16-6.94Q317.7,193.25,318.66,196.77Zm-3.88-11.45q-.91-2.23-1.94-4.42A97.75,97.75,0,0,0,303,164.33a97.75,97.75,0,0,1,9.86,16.57Q313.86,183.09,314.78,185.32ZM300,160.49c-1-1.26-2.09-2.49-3.18-3.71C297.92,158,299,159.23,300,160.49ZM278.3,140.67q-2-1.36-4.11-2.63c-2.08-1.26-4.21-2.44-6.36-3.54,2.15,1.1,4.28,2.28,6.36,3.54Q276.26,139.3,278.3,140.67Zm-12.64-7.24a97.84,97.84,0,0,0-25.2-8.08q-3.59-.63-7.21-1c-3.23-.32-6.49-.49-9.76-.51q-3.69,0-7.41.25a100.93,100.93,0,0,0-14.59,2.1,98.24,98.24,0,0,0-21.71,7.52c-.72.35-1.44.71-2.15,1.08s-1.34.7-2,1.06-1.29.7-1.92,1.07q-2.76,1.58-5.42,3.33-3,2-5.9,4.24c-1.28,1-2.54,2-3.77,3.07,1.23-1.05,2.49-2.08,3.77-3.07q2.88-2.23,5.9-4.24,2.66-1.76,5.42-3.33c.63-.37,1.27-.72,1.92-1.07s1.33-.72,2-1.06,1.43-.73,2.15-1.08a98.24,98.24,0,0,1,21.71-7.52,100.93,100.93,0,0,1,14.59-2.1q3.72-.26,7.41-.25c3.27,0,6.53.19,9.76.51q3.63.38,7.21,1A97.84,97.84,0,0,1,265.66,133.43Zm-112.44,19.1q-1.74,1.74-3.41,3.56Q151.47,154.27,153.22,152.53ZM134.5,178.17q-1.09,2.16-2.08,4.37Q133.41,180.33,134.5,178.17Zm-3,6.58c-.62,1.48-1.21,3-1.75,4.49C130.25,187.73,130.84,186.23,131.46,184.75Zm82-114,5.93,20.52h-.28c-1.37,0-2.73.1-4.1.19H215Zm82.07,42.22-.33-.22c-.73-.47-1.45-.94-2.19-1.4l-.26-.17a130.85,130.85,0,0,0-25.28-12.26l-.76-.26-.91-.32-.12-.05-.26-.08-1.5-.5-.71-.23L261.89,97l-1.28-.38q-.87-.27-1.74-.51l-.34-.1a130.3,130.3,0,0,0-36.74-4.83l-8.06-27.92a160.77,160.77,0,0,1,53,5.76l2.22.64c1.25.37,2.5.76,3.74,1.16l2.14.72c1.23.42,2.46.85,3.68,1.31.73.26,1.45.54,2.17.81A158.77,158.77,0,0,1,319.13,95l-23.25,18.14ZM212.66,91.58h-.1q-2.06.16-4.08.39l-.28,0,3-21.14Zm-90.24,19s.65,2.46,2.94-1.37c0,0,2.22,5.38,6.19,1.45,0,0,2.94-3,.23-5.76a3.27,3.27,0,0,0-4.73-.32s.9-3.33-3.34-7.17a158.25,158.25,0,0,1,21.35-14.24c.67-.38,1.35-.75,2-1.11,1.15-.62,2.31-1.22,3.47-1.81l2-1c1.17-.58,2.35-1.13,3.53-1.68l2.12-.94A160.73,160.73,0,0,1,210,63.52l-4.1,28.77a130.65,130.65,0,0,0-35.75,9.92l-.27.12-1.68.76-1.19.55-1.31.62-.66.32c-.55.27-1.1.54-1.64.82h0l-.08,0a130.43,130.43,0,0,0-26.94,18.21c1.34-1.69,3.68-5.56.21-8.69,0,0-3.52-3-6.94.88,0,0-4.35,5.42,2.56,6.16,0,0-4.36,4.88-13.67,1.13,0,0,4.39-3.92,2-5.83,0,0-1.67-1.75-5.08,2.9,0,0-5-6.89-.53-11.57C114.9,108.63,120.19,102.8,122.42,110.56Zm-2.49,30.24-.32.4-.21.27c-.3.37-.59.75-.88,1.12l-.09.13q-1.71,2.21-3.31,4.49c4.3-9-3.49-16.74-3.49-16.74A62.8,62.8,0,0,1,119.93,140.8Zm-15.46-25.41c.72-.8,1.44-1.58,2.18-2.36.72,3,2.54,6.33,6.23,10A36.64,36.64,0,0,1,104.47,115.39Zm1.79-5.26q-1.61,1.66-3.16,3.37c-.38-.57-.73-1.16-1-1.76q2.22-2.43,4.53-4.75A12.47,12.47,0,0,0,106.26,110.13Zm2.39,17.74c-4.12-3.15-7.72-4.48-10.74-4.79.67-.83,1.34-1.66,2-2.48A36.61,36.61,0,0,1,108.65,127.87ZM91.58,233.34s0,.07,0,.1q.16,2.06.39,4.08c0,.1,0,.19,0,.28l-21.14-3ZM70.7,232.5l20.52-5.93c0,.1,0,.19,0,.28,0,1.37.1,2.73.19,4.1v.1Zm12.45,68.44c-.38-.67-.75-1.35-1.11-2-.62-1.15-1.22-2.31-1.81-3.47-.34-.67-.67-1.34-1-2-.58-1.17-1.13-2.35-1.68-3.53-.32-.71-.63-1.41-.94-2.12a160.73,160.73,0,0,1-13.09-51.72l28.77,4.1a131,131,0,0,0,9.91,35.73c0,.1.09.2.13.3.25.55.5,1.11.76,1.66s.36.8.55,1.2.41.87.62,1.3c.11.22.21.45.32.67l.69,1.39.13.26s0,.09.07.13l.42.83.39.74.6,1.13h0a129.2,129.2,0,0,0,15,22.18l.19.23c.56.67,1.13,1.33,1.71,2,.08.09.16.19.25.28l.24.28L109.6,336A159,159,0,0,1,83.15,300.94Zm41.14,5.87q3.18,3.74,6.62,7.22,2.29,2.31,4.71,4.52,4.81,4.4,10,8.31A130.37,130.37,0,0,0,174.11,343q4.57,1.88,9.31,3.4a130.16,130.16,0,0,0,46.89,5.93,130.16,130.16,0,0,1-46.89-5.93q-4.72-1.53-9.31-3.4a130.37,130.37,0,0,1-28.44-16.09q-5.23-3.9-10-8.31-2.42-2.21-4.71-4.52Q127.48,310.55,124.29,306.81Zm1.39-64.69a98.54,98.54,0,0,0,13.25,33.56A98.54,98.54,0,0,1,125.68,242.12Zm14.56,35.59q2,3,4.24,5.9Q142.25,280.73,140.24,277.71Zm12.29,15.07q1.74,1.74,3.56,3.41Q154.27,294.52,152.53,292.78Zm-2.1,40.3.32.21,2.2,1.42.26.16a130.42,130.42,0,0,0,24,11.8l0,0,1.19.43.81.29.86.3.14.05.3.09,1.46.49.7.22,1.38.44,1.25.38c.59.17,1.18.35,1.77.51l.29.08a130.24,130.24,0,0,0,36.78,4.85l8.06,27.92a160.77,160.77,0,0,1-53-5.76l-2.22-.64c-1.25-.37-2.5-.76-3.74-1.16l-2.14-.72c-1.23-.42-2.46-.85-3.68-1.31-.73-.26-1.45-.54-2.17-.81A158.77,158.77,0,0,1,126.87,351l23.25-18.14Zm82.91,21.34c1.49-.12,3-.26,4.46-.42l-3,21.14Zm7.93-3.23a17.47,17.47,0,0,0-11.51-31.55,96.87,96.87,0,1,1,89.88-103.4,17.47,17.47,0,0,0,32.85,7A129.31,129.31,0,0,1,241.27,351.19ZM351,319.13a159.58,159.58,0,0,0,14.67-23.5A159.58,159.58,0,0,1,351,319.13h0l-18.14-23.25ZM338.08,102.49l-1.18,2-1,1.75-1.17,2-14.67,25.43c-1.16-1.25-2.34-2.49-3.55-3.7q-3-3-6.15-5.79l18.54-21.33,1.5-1.73,1.29-1.48,1.5-1.72,22.24-25.59Zm-6.63-6L330,98.22l-1.29,1.48-1.5,1.73-18.54,21.33c-2.15-1.84-4.34-3.6-6.59-5.29q-2.05-1.55-4.16-3L321,96.41,322.87,95l1.6-1.24,1.85-1.45L353.7,70.91Zm-7-5.68A165.26,165.26,0,0,0,281.66,67l4.74-33.47L270,63.11a166,166,0,0,0-58.2-6.36l-.62-2.15-.31,2.21a166.19,166.19,0,0,0-56.74,14.4l-20.32-27,9.35,32.49A165.56,165.56,0,0,0,101,109.49a15.19,15.19,0,0,1,1.43-14s-6.54,4.87-28.81-6.4C145.74,8.61,269.26-.12,352,69.35ZM80,121.35A15.2,15.2,0,0,1,93.61,118,165.55,165.55,0,0,0,67,164.34L33.52,159.6,63.11,176a166,166,0,0,0-6.36,58.2l-2.15.62,2.21.31a166.19,166.19,0,0,0,14.4,56.74l-27,20.32,32.49-9.35a165.1,165.1,0,0,0,29.55,39.07L88.8,372.1C8.49,299.86-.06,176.33,69.61,93.72,83.87,114.2,80,121.35,80,121.35Zm28,222.16,1.18-2,1-1.75,1.17-2L126,312.25q1.76,1.9,3.6,3.75c2,2,4,3.88,6.1,5.74l-18.54,21.33-1.5,1.73-1.29,1.48-1.5,1.72L90.58,373.59Zm6.63,6,1.5-1.72,1.29-1.48,1.5-1.73,18.54-21.33q3.19,2.73,6.53,5.24c1.39,1,2.8,2.06,4.22,3L125,349.59,123.13,351l-1.6,1.24-1.85,1.45L92.3,375.09Zm7,5.68A165.26,165.26,0,0,0,164.34,379l-4.74,33.47L176,382.89a166,166,0,0,0,58.2,6.36l.62,2.15.31-2.21a166.19,166.19,0,0,0,56.74-14.4l20.32,27-9.35-32.49a164.88,164.88,0,0,0,39.07-29.56L372.1,357.2C300,437.41,176.64,446,94,376.65Zm222-17.1-2-1.18-1.75-1-2-1.17-25.43-14.67a133.8,133.8,0,0,0,9.49-9.7l21.33,18.54,1.73,1.5,1.48,1.29,1.72,1.5,25.59,22.24Zm6-6.63-1.72-1.5-1.48-1.29-1.73-1.5-21.33-18.54a132.67,132.67,0,0,0,8.29-10.75L349.59,321l1.45,1.86,1.24,1.6,1.45,1.85,21.36,27.38Zm5.68-7A165.26,165.26,0,0,0,379,281.66l33.47,4.74L382.89,270a166,166,0,0,0,6.36-58.19l2.15-.63-2.21-.31a166.19,166.19,0,0,0-14.4-56.74l27-20.32-32.49,9.35a164.88,164.88,0,0,0-29.56-39.07L357.2,73.9C437.41,146.05,446,269.36,376.65,352Zm-271.8,57q-6.27-5.52-12-11.41l3.88-3.75-.68-.71-3.88,3.75a209.14,209.14,0,0,1-22.57-27.85l4.49-3-.55-.81-4.49,3a209.1,209.1,0,0,1-17.34-31.36l4.91-2.19-.4-.9-4.91,2.19a210.63,210.63,0,0,1-11.61-33.9l5.16-1.29-.24-.95L18,273.61a213.48,213.48,0,0,1-5.58-35.39l5.28-.37-.07-1-5.28.37a214.29,214.29,0,0,1,.6-35.82l5.29.55.1-1-5.29-.56a211.64,211.64,0,0,1,6.79-35.19L25,166.73l.27-.94-5.17-1.48a211.08,211.08,0,0,1,12.81-33.48l4.87,2.38.43-.88L33.35,130A209,209,0,0,1,51.82,99.24l4.37,3.17.57-.79L52.4,98.45q5-6.87,10.67-13.43c1.92,2.4,3.64,4.65,5.17,6.77A202.72,202.72,0,0,0,87.63,374.13Zm286.71-6.89-3.75-3.88-.71.68,3.75,3.88a209.14,209.14,0,0,1-27.85,22.57l-3-4.49-.81.55,3,4.49a209.1,209.1,0,0,1-31.36,17.34l-2.19-4.91-.9.4,2.19,4.91a210.63,210.63,0,0,1-33.9,11.61l-1.29-5.16-.95.24,1.29,5.16a213.48,213.48,0,0,1-35.39,5.58l-.37-5.28-1,.07.37,5.28a214.29,214.29,0,0,1-35.82-.6l.55-5.29-1-.1-.56,5.29a211.64,211.64,0,0,1-35.19-6.79l1.48-5.16-.94-.27-1.48,5.17a210.17,210.17,0,0,1-33.48-12.82l2.38-4.86-.88-.43L130,412.65a209.46,209.46,0,0,1-30.71-18.47l3.17-4.37-.79-.57-3.17,4.36q-6.63-4.85-13-10.28l6.7-5.23a202.72,202.72,0,0,0,282-19.72l7.37,4.25Q376,368.89,370.09,374.61Zm43-59.44-4.86-2.38-.43.88,4.86,2.38a209.46,209.46,0,0,1-18.47,30.71l-4.37-3.17-.57.79,4.36,3.17q-4.85,6.63-10.28,13l-5.23-6.7A202.72,202.72,0,0,0,358.37,71.87l4.25-7.37q6.27,5.52,12,11.41l-3.88,3.75.68.71,3.88-3.75a209.14,209.14,0,0,1,22.57,27.85l-4.49,3,.55.81,4.49-3a209.1,209.1,0,0,1,17.34,31.36l-4.91,2.19.4.9,4.91-2.19a210.63,210.63,0,0,1,11.61,33.9l-5.16,1.29.24,1,5.16-1.29a213.48,213.48,0,0,1,5.58,35.39l-5.28.37.07,1,5.28-.37a214.29,214.29,0,0,1-.6,35.82l-5.29-.55-.1,1,5.29.56a211.64,211.64,0,0,1-6.79,35.19L421,279.27l-.27.94,5.17,1.48A210.17,210.17,0,0,1,413.08,315.17Z"/><path class="cls-1" d="M391.29,369.29A223,223,0,1,1,54.71,76.71,223,223,0,1,1,391.29,369.29ZM58.41,79.92c-78.9,90.76-69.25,228.78,21.51,307.67s228.78,69.25,307.67-21.51S456.84,137.3,366.08,58.41,137.3-10.84,58.41,79.92Z"/><path class="cls-11" d="M227.29,347.37a19.34,19.34,0,0,0-1.65-4.94l1.2-.16a3.92,3.92,0,0,0,1.7,1.75,8.87,8.87,0,0,0,2.35.94,4.22,4.22,0,0,0,2.15,0,2.35,2.35,0,0,0,1.5-1.12,1.35,1.35,0,0,0-.07-1.57c-.36-.49-.52-.84-.49-1.05l.05-.34-.2-.09v-.17l-.13-.1,0-.14-.22-.17,0,.08-.07,0-.11,0-.08-.13,0,.09-.12,0,0,.08-.08.13H233l-.07.1,0,0-.08.06-.24.15-.69-.37a21,21,0,0,0-2.54-1,7.58,7.58,0,0,1-3.06-1.88,20.41,20.41,0,0,1-2.62-3.56l.53-1.32A8.13,8.13,0,0,1,225.6,330a7.86,7.86,0,0,1,2.39-1.87,8.69,8.69,0,0,1,2.86-1,9.53,9.53,0,0,1,2.48-.06,6,6,0,0,1,2.44,1,4.87,4.87,0,0,1,1.8,1.75,2.56,2.56,0,0,1,.18,1.92,4.07,4.07,0,0,1-1.06,1.79,4.4,4.4,0,0,1-1.57,1.06,3.28,3.28,0,0,1-1.37.22,15.39,15.39,0,0,0-.58-2.16,4.62,4.62,0,0,0,1.93-.07,1.35,1.35,0,0,0,.85-1.09,1.93,1.93,0,0,0-.5-1.69,3.89,3.89,0,0,0-1.41-1.13,5.52,5.52,0,0,0-1.83-.38,5.85,5.85,0,0,0-2.12.28,4.32,4.32,0,0,0-1.83,1.21,3.72,3.72,0,0,0-1,1.83l-.41.51.21.67c.14.05.3.32.47.81q.45,1,3.69,2.51a19.38,19.38,0,0,1,4.51,1.94,5.27,5.27,0,0,1,1.64,1.72l.9,1.6-.57.83a9.34,9.34,0,0,1-.73,1.67,5.27,5.27,0,0,1-1.33,1.6,4.75,4.75,0,0,1-1.56.89,10.41,10.41,0,0,1-2,.3c-.82.06-1.53.09-2.12.08a5,5,0,0,0-1.79.3Z"/><path class="cls-11" d="M190.1,342.34a1,1,0,0,1-1-.35l-.48-.18-1.51-.53q-.36-.69-6.06-1.86l-1.5-.47-.76-.23-.76-.24a24.23,24.23,0,0,0,.82-5.6l1.1-.37a8.89,8.89,0,0,0,.56,2.9,4.79,4.79,0,0,0,1,1.68,3,3,0,0,0,1.44.69l1.92-5.77.59-1.74.62-1.25.67-.4.25-1.2-.19-1.17a4.41,4.41,0,0,0-.2-3.17l-.79-.59.31-.94a23.28,23.28,0,0,1,3.28,1.27,4.54,4.54,0,0,0,1.91.61,8.34,8.34,0,0,1,2.45.55l-.4.8a13.51,13.51,0,0,0-2.34.69l-3.82,11.76-.5.54-.18,1.3c1.29.49,2.18.6,2.67.31s1-.57,1.46-.87l.57-.12c.19-.53.38-1.07.57-1.64l.9.42Z"/><path class="cls-11" d="M142.84,317.35l-.25-.21-.22-.62-.35-.19-.13-.11A28.38,28.38,0,0,1,138.7,314a10.21,10.21,0,0,0,1.8-2.23c.25-.5.59-1.18,1-2l1.22-.07a11.63,11.63,0,0,0-.23,3.24c.1.68.21,1.34.34,2a5.68,5.68,0,0,0,1.55,2.38l1,.5.33.28.6-.06.27-.32.79-.44.84-1.52,2.16-2.6-2.67-2.32-.81-.67a3,3,0,0,0-1.08.09,8.39,8.39,0,0,0-.93.43l-.8-.67,3.59-4.45.81.8a3.72,3.72,0,0,0-.68,1.74,2,2,0,0,0,.9,1.76l1.47,1.19,1.18.93,3.4-4.09c.5-.85.7-1.37.59-1.58a3,3,0,0,0-.72-.76,19.74,19.74,0,0,0-1.88-1.32l.23-.27.37,0-.39-.56-.45.3A29.64,29.64,0,0,1,149.7,301c-.89-1-1.49-1.59-1.79-1.87a3.81,3.81,0,0,0-1.42-.71c-.64-.2-.75-.53-.32-1s.74-.61.94-.44.69.51,1.47,1a7.94,7.94,0,0,1,1.69,1.41,14.4,14.4,0,0,0,1.85,1.74q1.31,1.1,3.57,3.1c1.51,1.34,2.5,2.19,3,2.53l1.35,1c.43.32,1,.74,1.58,1.26l-.6.59a3.43,3.43,0,0,0-1.45-.59,2.32,2.32,0,0,0-1,.27,9.1,9.1,0,0,0-1.91,1.8L153,315.63l-.36-.07-.16.2-.29,0-.23-.1-.08-.16-.13-.11-.18-.15-.17.08-.23.27.25.2a3.84,3.84,0,0,1,.81.55l-1.25,1.73a13.08,13.08,0,0,0-1.17,2,1.82,1.82,0,0,0,0,1.13,3.38,3.38,0,0,0,.95,1.35l-1.08.55Z"/><path class="cls-11" d="M122.47,272.58l1.85-1.85c-.06-.06-2.4.14-7,.58l-1.35-.14-1.42.09-1.17.39a7.85,7.85,0,0,0-1.49.21l-.19.1-.19.09-.18.1c-.51.26-.48,1,.11,2.13l.11.22c0,.1-.07.2-.23.28l-.56.28a.27.27,0,0,1-.42-.12,23.67,23.67,0,0,0-1.5-3.31l0-.07.18,0-.06-.9-.37-.06-.44-.25-.44-.86c0-.11.06-.21.21-.29l.3-.14a.47.47,0,0,1,.71.22,2.73,2.73,0,0,0,1.75.59l5.06-.12c3.38-.09,5.89-.18,7.53-.3s2.63-.35,2.93-.71a1.3,1.3,0,0,0,0-1.49c-.11-.22,0-.39.27-.54s.66-.24.73-.09l.84,1.87.47,1.48.22.26.17.33.25.05-.24.77a.41.41,0,0,0,.55,0l.5.8.07,0,0,.05-.05,0,.07,0,.3.58c.1.22,0,.42-.42.61l-.15.08c-.22.11-.42,0-.6-.38-.35-.69-.8-1-1.36-.87a32.11,32.11,0,0,0-4,4l-1,.17-.21.58-.66.43.3.43q-3.45,3.75-4.82,5.46a5.18,5.18,0,0,0-1.51,2.22c-.13.61-.24,1.14-.32,1.59A3.61,3.61,0,0,0,116,289a3.44,3.44,0,0,1-2.21-1,3.74,3.74,0,0,1-.56-2.36,8.35,8.35,0,0,1,1.12-3.69Q115.48,279.83,122.47,272.58Z"/><path class="cls-11" d="M99.53,231.72l0-.33.3-.58-.12-.39v-.17a27.37,27.37,0,0,1-.65-3.83,10.65,10.65,0,0,0,2.85-.26l2.15-.7.91.82a11.45,11.45,0,0,0-2.49,2.1q-.61.81-1.17,1.62a5.6,5.6,0,0,0-.61,2.77l.32,1,0,.43.46.39.42,0,.86.26,1.67-.46,3.38-.27-.22-3.54-.08-1.05a3.11,3.11,0,0,0-.82-.7,7.54,7.54,0,0,0-1-.37l-.08-1,5.69-.54V228a3.8,3.8,0,0,0-1.72.73,2,2,0,0,0-.63,1.88l.18,1.89.16,1.48,5.3-.42c1-.23,1.47-.46,1.54-.68a3.2,3.2,0,0,0,0-1.05,22.12,22.12,0,0,0-.38-2.26l.36,0,.28.24.12-.67-.53-.11a30.37,30.37,0,0,1,0-3.83c.07-1.31.1-2.18.09-2.58a4,4,0,0,0-.48-1.51q-.47-.9.48-.93c.63,0,1,.11,1,.37s.12.85.3,1.75a7.61,7.61,0,0,1,.18,2.2,14.85,14.85,0,0,0,0,2.54c.09,1.13.19,2.7.29,4.72s.19,3.32.27,3.89.16,1.13.23,1.66.14,1.21.2,2l-.84,0a3.45,3.45,0,0,0-.59-1.45,2.31,2.31,0,0,0-.9-.53,8.88,8.88,0,0,0-2.63-.11l-5.79.53-.2-.3-.26,0-.19-.22-.09-.24.06-.17v-.17l0-.23-.17-.07-.36,0,0,.31a3.71,3.71,0,0,1,.17,1l-2.11.32a10.92,10.92,0,0,0-2.24.56,1.8,1.8,0,0,0-.84.75,3.37,3.37,0,0,0-.3,1.63l-1.15-.39Z"/><path class="cls-11" d="M100.9,194.14a4.11,4.11,0,0,1-.78-2.34,4.75,4.75,0,0,1,1.1-2.45,9.05,9.05,0,0,1,3.22-2.51,22.66,22.66,0,0,1,5.29-1.81q3.1-.69,9.51-1.73l-8.37-3.06a3.65,3.65,0,0,0-2.11-.13,5.4,5.4,0,0,0-1.16,1.27l-.92-.32.45-.89.61-1.12a19.36,19.36,0,0,1,1.15-4.46l.62.32a3.56,3.56,0,0,0,0,1.56c.12.36.65.84,1.6,1.42l13.63,4.75a16.57,16.57,0,0,0,3.49-.51,2.26,2.26,0,0,0,1.39-.93,1.25,1.25,0,0,0,0-1.16c-.17-.38-.17-.66,0-.84s.4-.16.71.05a1.75,1.75,0,0,1,.66.91,2.62,2.62,0,0,1-.31,1.75,5.37,5.37,0,0,1-1.43,2,13.7,13.7,0,0,1-3.15,1.79c-1.49.67-2.47.82-3,.47l-.29-.68-.7-.07-.09.59.22.24.12.26-.15.43-.27-.09q-5.55.94-13.18,2.32L119,192.33a4.17,4.17,0,0,0,1.87.19,3.65,3.65,0,0,0,.77-1.34l.88.37-2,5.79-.61-.29a11.1,11.1,0,0,0-.17-1.3c0-.25-.61-.62-1.67-1.11l-6.19-2.33-3.45-.91-3.21-1.08a3.6,3.6,0,0,0-2.18.75c-.49.42-.91.81-1.28,1.18A4.15,4.15,0,0,0,100.9,194.14Z"/><path class="cls-11" d="M166.33,124.71c.31.58.69,1.32,1.15,2.23a4.33,4.33,0,0,1,.46,1.89,2.81,2.81,0,0,1,1.11.78,2,2,0,0,0,.5.51.79.79,0,0,0,.55.08,2.74,2.74,0,0,0,.72-.24,1.49,1.49,0,0,1,.52-.18c.07,0,.16.12.28.34a1.66,1.66,0,0,1,.2.45.23.23,0,0,1-.15.19,26.09,26.09,0,0,0-5.74,4.28l-.13.08c-.13.07-.22.09-.28.06a1.72,1.72,0,0,1-.3-.45.73.73,0,0,1-.13-.35.53.53,0,0,1,.16-.23,3.27,3.27,0,0,0,.63-.56,1.8,1.8,0,0,0,.1-1.16,6.48,6.48,0,0,0-.28-1.32,7.89,7.89,0,0,0-.5-1.08l-.3-.55-.16-.32-.82-1.72,0-.43-.44-.28-1.86-3.51.06-.33,0-.37.14-.14-.26-.4-.37-.1-.24.07-.65-1.21a8.31,8.31,0,0,0-1.14-1.66,1,1,0,0,0-.65-.29,2.45,2.45,0,0,0-.77.19,1.38,1.38,0,0,1-.45.1s-.15-.16-.3-.44a.82.82,0,0,1-.14-.42c0-.07.12-.16.3-.26l.32-.17a7.88,7.88,0,0,0,.9-.44,13.47,13.47,0,0,1,2-.82c.35,0,.69-.06,1-.08s.19-.31,0-.5a2.39,2.39,0,0,0,.79-.5,3,3,0,0,1,.59-.5l.27-.14c.17-.1.32,0,.44.19a1.63,1.63,0,0,1,.26.64c0,.09-.13.22-.36.38a1.61,1.61,0,0,0-.72.78,1.73,1.73,0,0,0,.17,1,17.93,17.93,0,0,0,.8,1.74c.43.83.92,1.78,1.5,2.85a.67.67,0,0,0,1.13-.17,4.48,4.48,0,0,0,.56-1.18c.12-.43.25-.89.37-1.37s.33-1.16.61-2l.51-.6-.41-.35a11.54,11.54,0,0,0,.23-1.39,1.13,1.13,0,0,0-.1-.66c-.16-.3-.35-.38-.58-.24s-.35.16-.43.12a.73.73,0,0,1-.28-.34,1.47,1.47,0,0,1-.21-.52c0-.09.06-.16.17-.22l.11-.06.9-.39a2.18,2.18,0,0,1,.9-.13,14.17,14.17,0,0,0,2.64-1.87l.23-.12c.12-.07.22-.08.29,0a1.1,1.1,0,0,1,.28.38q.19.36.15.45a2.25,2.25,0,0,1-.37.44c-.18.18-.32.34-.44.47a3,3,0,0,0-.34.53c-.11.21-.23.49-.37.82s-.29.77-.49,1.33-.39,1.12-.6,1.69a12.11,12.11,0,0,0-.48,2.89l5.64,3.66,1.36.88.68.42.1.53.54.28.43.32.95-.22,1.33.46a7.69,7.69,0,0,0,3.86.62,5.22,5.22,0,0,0,2.08-1,11.34,11.34,0,0,0,1.88-2c.46-.12.78.39,1,1.5l-1.27,1.22a11.86,11.86,0,0,1-2,1.28,6.2,6.2,0,0,1-2.54.93,16.94,16.94,0,0,1-2.49-.13,17.26,17.26,0,0,1-3.93-1.09,33.42,33.42,0,0,1-3.42-1.43l-1.95-1.06-1.56-.83a5.43,5.43,0,0,1-1.17-.88,9.63,9.63,0,0,1-1-.37Z"/><path class="cls-11" d="M218.16,116.73a2.33,2.33,0,0,0,1-.36.68.68,0,0,0,.24-.63,2.36,2.36,0,0,0-.07-.35,4.51,4.51,0,0,0-.21-.63c-.1-.28-.24-.65-.43-1.11l-.84-2.14-4.31.62-.15-.4a2.87,2.87,0,0,1-.88.53c-.19.77-.33,1.4-.45,1.88s-.2.85-.26,1.13a5.54,5.54,0,0,0-.11.62,1.42,1.42,0,0,0,0,.35c0,.61.54.89,1.49.84l.57.32,0,.23a1.69,1.69,0,0,1,0,.44c0,.06-.09.09-.23.1l-.27,0a1.82,1.82,0,0,1-.33,0l-2.47.14a1.88,1.88,0,0,1-.65.16l-1,.06-.25-.14-.37.22-.3.16-.06-.11-.34.08-.41.25c-.56.23-.88.26-1,.12s-.05-.25.07-.3l.06-.32a.28.28,0,0,1-.15-.23c0-.09.08-.16.2-.2a13.42,13.42,0,0,0,2.38-1,2.64,2.64,0,0,0,.49-1.09,8.13,8.13,0,0,1,.63-1.58,18.54,18.54,0,0,0,1-2.42,33.37,33.37,0,0,1,1.08-4,31.63,31.63,0,0,0,.91-3.12,8.37,8.37,0,0,1,.71-2c.28-.5,0-1.11-.73-1.83l.74-1.4a20.66,20.66,0,0,0,2.05-.31.54.54,0,0,1,.27-.06c.1,0,.17,0,.19.07l.21.45a30.73,30.73,0,0,1,1.89,3c.32.64.57,1.17.74,1.59l.25.75-.49-.1-.16.39.37.61.83.19.51,1.23.51,1.23,1.43.2-.4,2.08-.5.07c.38,1,.68,1.72.91,2.2a2.19,2.19,0,0,1,.15,1.51l1.27,1.1a1.48,1.48,0,0,0,.77.36c.29,0,.45.09.47.14a2.31,2.31,0,0,1,.06.44.6.6,0,0,1-.23.56c-3.3.21-5.06.33-5.27.36l-.42,0a2.71,2.71,0,0,1-1,0,1.07,1.07,0,0,1-.09-.44,1.27,1.27,0,0,1,0-.43S218,116.76,218.16,116.73Zm-1.29-7.2c-.39-.9-.65-1.53-.8-1.88,0-.6,0-1-.21-1.15a2,2,0,0,1-.5-.73c-.15-.32-.26-.55-.32-.71l-.19-.45c-.48,1.81-1,3.65-1.54,5.53Z"/><path class="cls-11" d="M256.45,103.33a8.19,8.19,0,0,1,3.22,2.27,1.43,1.43,0,0,1,.31,1.05l.47,0,2,4.32,0,.07a7.92,7.92,0,0,0-1.16,2.29,5.89,5.89,0,0,1-3,2.37L258,116c.15,0,.36.48.66,1.32l0,.13-.19.46.6.76.26-.23.07,0a12.82,12.82,0,0,1,1.61,4,15.18,15.18,0,0,0,1.73,5,4.32,4.32,0,0,0,1.48,1.21l2.58.2.11,0,.3.15-.07.27a3.73,3.73,0,0,1-3.46.62,6,6,0,0,1-4-3.25,23.75,23.75,0,0,1-2.34-5.26l-1.67-5-1.41-.31-1.56-.42-.36-.17-.2,0-.69,2.54c0,.09-.19.12-.49.09l-.08.28c0,.13.07.23.32.3a2.17,2.17,0,0,0,.4,2.25l.79.29-.19.69-2.51-.9a14.19,14.19,0,0,0-4.09,0l0-.08.1-.84c.93.25,1.69-.3,2.26-1.68l1.83-6.76.89-3a1.13,1.13,0,0,0-.86-1.57l-.12,0a.77.77,0,0,1,.09-.64c.13-.26.25-.37.38-.34a36.52,36.52,0,0,0,5.55,1.59l-.24.88-.64-.17a3.22,3.22,0,0,0-1.56,2.31l-.22.83L252.3,114l.17.12c2.4.65,3.81.65,4.25,0,.81-.26,1.42-1.12,1.82-2.58.56-2.08.37-3.64-.55-4.7a6.89,6.89,0,0,0-3.31-2,40.48,40.48,0,0,0-7.63-1l-.52-.07c-.92-.43-1.35-.74-1.3-.92l-.28-2.46.12,0a7.89,7.89,0,0,0,3.54,1.84,20.39,20.39,0,0,0,3.79.46A16,16,0,0,1,256.45,103.33Z"/><path class="cls-11" d="M306.09,130.35q3.75,3.35,2.19,7.66l-.1.3a.72.72,0,0,0,0,.59,4.43,4.43,0,0,1-1.55.73,3.68,3.68,0,0,1-2.2.17,3.42,3.42,0,0,1-1.14-.49l-.18.21a6.85,6.85,0,0,1,.29,2.24,12,12,0,0,1-.73,2.7l-.29,1.25a7.34,7.34,0,0,0-2.21,1.06c-1.49.45-2.36.56-2.63.32h-.09c-.07-.06-.15,0-.25.07l-.31-.27q-.27.3-.48.12a18.27,18.27,0,0,1-2.9-2.2l-2.75-3.12a10.73,10.73,0,0,0-2.89-1.64c-.06.07-.19,0-.39-.17l0,0,.18-.41c.38-.42,1-.38,1.91.13q1.55.24,2-.27l4.28-4.79.2.18.05-.05v-.11l.05-.05a.54.54,0,0,0,.43,0l.14-.15q-.15-.14-.06-.24c.07.07.2,0,.39-.13l-.05,0-.41-.27,1.59-1.77q1.44-1.62.87-2.13l-.12-.29c.37-.3.57-.42.62-.38a8.54,8.54,0,0,0,1.53,2l2.28,1.76-.66.54-.1-.09a1.19,1.19,0,0,0-1.9.17l-5.26,5.89c-1.26,1.42-1.71,2.29-1.34,2.63a3.31,3.31,0,0,0,1,1.47,3.66,3.66,0,0,0,3.28.86,12.08,12.08,0,0,1,1.51-.81l0-.52a4.53,4.53,0,0,0,.9-3.78,6.23,6.23,0,0,0-1.32-2.57l-.1-.09.1-.11c.9-.57,1.52-.71,1.85-.41a3.39,3.39,0,0,0,.69,1.18c.61.55,1.59.27,3-.82l.47-.18q1-1.48-.12-3.93a15.45,15.45,0,0,0-2.7-2.84,21.67,21.67,0,0,0-5.3-3.07,2.85,2.85,0,0,1-.77-.4,9.41,9.41,0,0,1-.69-.8c-.34-.42-.44-.7-.31-.85l.77-2.31.1.09a8.8,8.8,0,0,0,2.53,3.38,30.14,30.14,0,0,0,3.61,2.5A24.25,24.25,0,0,1,306.09,130.35Z"/><path class="cls-11" d="M332.16,164.35l1.64,3.51-.14,1,.59.27.88,1.58-.76.19a1.74,1.74,0,0,0-1.18-.76,7.49,7.49,0,0,0-2.24.65L328.53,172l-.62,0-.16-.32-1.12-.2-.29.54-.42.21v.65l.13.26-.55.28-5.13,2.84a2.2,2.2,0,0,0-1.21,1.57l.27.93-.73.36a58.52,58.52,0,0,0-3.08-6.13l.85-.52a1.66,1.66,0,0,0,.91.8,3.36,3.36,0,0,0,1.54-.39l11.21-5.72a8.41,8.41,0,0,0,1.07-1.22c.17-.28.11-.69-.17-1.26Z"/><path class="cls-11" d="M345.74,206.85a1,1,0,0,1,.07,1.07l0,.51.1,1.6c-.33.39-.12,2.5.65,6.31l.15,1.55.07.8.08.79a24.45,24.45,0,0,0-5.47,1.43l-.77-.88a8.64,8.64,0,0,0,2.45-1.64,4.72,4.72,0,0,0,1.16-1.58,3.07,3.07,0,0,0,.08-1.59l-6.06.47-1.84.14-1.39-.09-.63-.46-1.21.24-1,.63a4.42,4.42,0,0,0-2.85,1.42l-.24,1-1,.08a24.11,24.11,0,0,1-.1-3.52,4.55,4.55,0,0,0-.18-2,8.37,8.37,0,0,1-.45-2.46l.9.05a13.79,13.79,0,0,0,1.54,1.89l12.32-1.06.69.25,1.27-.33c-.05-1.38-.3-2.25-.75-2.59s-.91-.68-1.37-1l-.34-.48c-.56,0-1.13.06-1.72.11l0-1Z"/><polygon class="cls-1" points="196.14 227.91 199.66 228.84 202.42 226.46 202.63 230.1 205.74 231.99 202.35 233.31 201.51 236.85 199.21 234.03 195.58 234.33 197.55 231.27 196.14 227.91"/><polygon class="cls-11" points="331.33 324 324.15 324.6 328.05 318.54 325.26 311.9 332.23 313.73 337.69 309.03 338.1 316.22 344.25 319.96 337.54 322.57 335.89 329.58 331.33 324"/><path class="cls-1" d="M335.48,314.23l.2,3.44,2.94,1.79-3.21,1.26-.79,3.35-2.19-2.67-3.43.29,1.86-2.9-1.33-3.19,3.33.88,2.62-2.25m4.41-10.4-7.67,6.61-.63.54-.79-.21-9.8-2.58,3.92,9.35.31.75-.44.69-5.48,8.53,10.1-.84.82-.07.52.64,6.41,7.84,2.32-9.86.19-.8.77-.3,9.44-3.67-8.66-5.26-.7-.43,0-.82-.58-10.11Z"/><polygon class="cls-11" points="349.87 284.88 353.31 284.86 355.26 282.01 356.34 285.29 359.65 286.25 356.87 288.29 356.97 291.74 354.17 289.73 350.93 290.89 351.98 287.61 349.87 284.88"/><polygon class="cls-11" points="371.37 248.73 367.92 248.65 366.02 245.77 364.88 249.02 361.56 249.93 364.3 252.02 364.14 255.47 366.97 253.5 370.2 254.72 369.21 251.42 371.37 248.73"/><polygon class="cls-11" points="301.93 340.02 304.93 341.73 308.03 340.23 307.33 343.61 309.72 346.1 306.29 346.48 304.65 349.52 303.24 346.37 299.84 345.76 302.39 343.44 301.93 340.02"/><polygon class="cls-11" points="268.95 356.46 271.4 358.89 274.8 358.25 273.24 361.33 274.9 364.35 271.49 363.83 269.13 366.34 268.57 362.94 265.45 361.46 268.52 359.88 268.95 356.46"/></g></g></svg>